<svg xmlns="http://www.w3.org/2000/svg" xmlns:xlink="http://www.w3.org/1999/xlink" width="512" zoomAndPan="magnify" viewBox="0 0 384 383.999986" height="512" preserveAspectRatio="xMidYMid meet" version="1.2"><defs><clipPath id="8820fc2760"><rect x="0" width="299" y="0" height="384"/></clipPath></defs><g id="073ab526d1"><rect x="0" width="384" y="0" height="383.999986" style="fill:#ffffff;fill-opacity:1;stroke:none;"/><rect x="0" width="384" y="0" height="383.999986" style="fill:#000000;fill-opacity:1;stroke:none;"/><g transform="matrix(1,0,0,1,43,0)"><g clip-path="url(#8820fc2760)"><g style="fill:#ffffff;fill-opacity:1;"><g transform="translate(0.875004, 359.999972)"><path style="stroke:none" d="M 48.34375 0 L 48.34375 -319.765625 L 164.484375 -319.765625 C 185.910156 -319.765625 203.914062 -316.226562 218.5 -309.15625 C 233.082031 -302.082031 244.019531 -292.09375 251.3125 -279.1875 C 258.601562 -266.289062 262.25 -251.019531 262.25 -233.375 C 262.25 -213.539062 257.289062 -197.171875 247.375 -184.265625 C 237.457031 -171.367188 222 -161.710938 201 -155.296875 L 201 -150.703125 C 211.351562 -146.617188 219.8125 -140.203125 226.375 -131.453125 C 232.9375 -122.703125 238.988281 -109.648438 244.53125 -92.296875 L 274.0625 0 L 235.34375 0 L 203.40625 -97.765625 C 199.613281 -109.285156 195.238281 -118.328125 190.28125 -124.890625 C 185.320312 -131.453125 179.050781 -136.191406 171.46875 -139.109375 C 163.894531 -142.023438 154.273438 -143.484375 142.609375 -143.484375 L 85.953125 -143.484375 L 85.953125 0 Z M 163.609375 -175.40625 C 183.578125 -175.40625 198.445312 -180.035156 208.21875 -189.296875 C 217.988281 -198.554688 222.875 -212.664062 222.875 -231.625 C 222.875 -250.582031 217.988281 -264.6875 208.21875 -273.9375 C 198.445312 -283.195312 183.578125 -287.828125 163.609375 -287.828125 L 85.953125 -287.828125 L 85.953125 -175.40625 Z M 163.609375 -175.40625 "/></g></g></g></g></g></svg>